<?xml version="1.0" encoding="utf-8"?>
<svg version="1.1" id="Layer_1" xmlns="http://www.w3.org/2000/svg" x="0px" y="0px" viewBox="0 0 512 512" style="enable-background:new 0 0 512 512;">
  <g>
    <path d="M0,256c0.02,141.39,114.61,255.98,256,256c141.39-0.02,255.98-114.61,256-256C511.98,114.61,397.39,0.02,256,0 C114.61,0.02,0.02,114.61,0,256c0,14.14,11.46,25.6,25.6,25.6s25.6-11.46,25.6-25.6c0.01-56.64,22.88-107.67,59.98-144.82 C148.33,74.08,199.36,51.21,256,51.2c56.63,0.01,107.67,22.88,144.82,59.98c37.1,37.14,59.97,88.18,59.98,144.82 c-0.01,56.63-22.88,107.67-59.98,144.82c-37.14,37.1-88.18,59.97-144.82,59.98c-56.64-0.01-107.67-22.88-144.82-59.98 C74.08,363.67,51.21,312.64,51.2,256c0-14.14-11.46-25.6-25.6-25.6S0,241.86,0,256L0,256z" style="fill: rgb(83, 145, 85);"/>
    <path d="M307.2,128H204.8c-6.74,0-13.34,2.73-18.1,7.5c-4.77,4.77-7.5,11.36-7.5,18.1v204.8c0,6.74,2.73,13.34,7.5,18.1 c4.77,4.77,11.36,7.5,18.1,7.5h102.4c14.14,0,25.6-11.46,25.6-25.6s-11.46-25.6-25.6-25.6h-76.8V179.2h76.8 c14.14,0,25.6-11.46,25.6-25.6C332.8,139.46,321.34,128,307.2,128z" style="fill: rgb(83, 145, 85);"/>
    <path d="M204.8,281.6h64c14.14,0,25.6-11.46,25.6-25.6c0-14.14-11.46-25.6-25.6-25.6h-64c-14.14,0-25.6,11.46-25.6,25.6 C179.2,270.14,190.66,281.6,204.8,281.6" style="fill: rgb(83, 145, 85);"/>
  </g>
</svg>